<mxfile host="app.diagrams.net" agent="Mozilla/5.0 (Windows NT 10.0; Win64; x64) AppleWebKit/537.36 (KHTML, like Gecko) Chrome/135.0.0.0 Safari/537.36 Edg/135.0.0.0" version="26.2.13">
  <diagram id="C5RBs43oDa-KdzZeNtuy" name="Page-1">
    <mxGraphModel dx="2073" dy="529" grid="1" gridSize="10" guides="1" tooltips="1" connect="1" arrows="1" fold="1" page="1" pageScale="1" pageWidth="827" pageHeight="1169" math="0" shadow="0">
      <root>
        <mxCell id="WIyWlLk6GJQsqaUBKTNV-0" />
        <mxCell id="WIyWlLk6GJQsqaUBKTNV-1" parent="WIyWlLk6GJQsqaUBKTNV-0" />
        <mxCell id="zkfFHV4jXpPFQw0GAbJ--0" value="Voiture" style="swimlane;fontStyle=0;align=center;verticalAlign=top;childLayout=stackLayout;horizontal=1;startSize=26;horizontalStack=0;resizeParent=1;resizeLast=0;collapsible=1;marginBottom=0;rounded=0;shadow=0;strokeWidth=1;" parent="WIyWlLk6GJQsqaUBKTNV-1" vertex="1">
          <mxGeometry x="4" y="459" width="216" height="190" as="geometry">
            <mxRectangle x="230" y="140" width="160" height="26" as="alternateBounds" />
          </mxGeometry>
        </mxCell>
        <mxCell id="EN0qMKBzVGV7fdGjZQlH-0" value="+ marque: String&#xa;+ modele: String&#xa;+ annee: Int&#xa;+ couleur: String&#xa;+ tarif: Double&#xa;+ type: String&#xa;# tarifReduction: Double" style="text;align=left;verticalAlign=top;spacingLeft=4;spacingRight=4;overflow=hidden;rotatable=0;points=[[0,0.5],[1,0.5]];portConstraint=eastwest;" parent="zkfFHV4jXpPFQw0GAbJ--0" vertex="1">
          <mxGeometry y="26" width="216" height="104" as="geometry" />
        </mxCell>
        <mxCell id="zkfFHV4jXpPFQw0GAbJ--4" value="" style="line;html=1;strokeWidth=1;align=left;verticalAlign=middle;spacingTop=-1;spacingLeft=3;spacingRight=3;rotatable=0;labelPosition=right;points=[];portConstraint=eastwest;" parent="zkfFHV4jXpPFQw0GAbJ--0" vertex="1">
          <mxGeometry y="130" width="216" height="20" as="geometry" />
        </mxCell>
        <mxCell id="q5ZdvfwIaH_BukOoBvkz-7" value="&amp;nbsp;# calculerTarifReduction(): Double&lt;div&gt;&amp;nbsp;+ afficherConsomation(): String&lt;/div&gt;" style="text;html=1;align=left;verticalAlign=middle;resizable=0;points=[];autosize=1;strokeColor=none;fillColor=none;" parent="zkfFHV4jXpPFQw0GAbJ--0" vertex="1">
          <mxGeometry y="150" width="216" height="40" as="geometry" />
        </mxCell>
        <mxCell id="zkfFHV4jXpPFQw0GAbJ--6" value="Reservation" style="swimlane;fontStyle=0;align=center;verticalAlign=top;childLayout=stackLayout;horizontal=1;startSize=26;horizontalStack=0;resizeParent=1;resizeLast=0;collapsible=1;marginBottom=0;rounded=0;shadow=0;strokeWidth=1;" parent="WIyWlLk6GJQsqaUBKTNV-1" vertex="1">
          <mxGeometry x="330" y="442" width="190" height="210" as="geometry">
            <mxRectangle x="130" y="380" width="160" height="26" as="alternateBounds" />
          </mxGeometry>
        </mxCell>
        <mxCell id="zkfFHV4jXpPFQw0GAbJ--7" value="+ marque: String&#xa;+Â modele: String&#xa;+ dateDebut: Calendar&#xa;+ dateFin: Calendar&#xa;+ tarifJournalier: Double&#xa;+ nombreDeJours: Int&#xa;+ montantTotal: Double&#xa;" style="text;align=left;verticalAlign=top;spacingLeft=4;spacingRight=4;overflow=hidden;rotatable=0;points=[[0,0.5],[1,0.5]];portConstraint=eastwest;" parent="zkfFHV4jXpPFQw0GAbJ--6" vertex="1">
          <mxGeometry y="26" width="190" height="104" as="geometry" />
        </mxCell>
        <mxCell id="NYK4G4JIHn3Qf-9X5thW-28" value="&lt;span style=&quot;text-wrap-mode: nowrap;&quot;&gt;+ &lt;u&gt;localisation:&lt;/u&gt; String&lt;/span&gt;" style="text;whiteSpace=wrap;html=1;" vertex="1" parent="zkfFHV4jXpPFQw0GAbJ--6">
          <mxGeometry y="130" width="190" height="20" as="geometry" />
        </mxCell>
        <mxCell id="zkfFHV4jXpPFQw0GAbJ--9" value="" style="line;html=1;strokeWidth=1;align=left;verticalAlign=middle;spacingTop=-1;spacingLeft=3;spacingRight=3;rotatable=0;labelPosition=right;points=[];portConstraint=eastwest;" parent="zkfFHV4jXpPFQw0GAbJ--6" vertex="1">
          <mxGeometry y="150" width="190" height="20" as="geometry" />
        </mxCell>
        <mxCell id="EN0qMKBzVGV7fdGjZQlH-5" value="+ calculerDuree(): Int&#xa;+ calculerMontantTotal(): Double" style="text;align=left;verticalAlign=top;spacingLeft=4;spacingRight=4;overflow=hidden;rotatable=0;points=[[0,0.5],[1,0.5]];portConstraint=eastwest;" parent="zkfFHV4jXpPFQw0GAbJ--6" vertex="1">
          <mxGeometry y="170" width="190" height="30" as="geometry" />
        </mxCell>
        <mxCell id="zkfFHV4jXpPFQw0GAbJ--13" value="Payment" style="swimlane;fontStyle=0;align=center;verticalAlign=top;childLayout=stackLayout;horizontal=1;startSize=26;horizontalStack=0;resizeParent=1;resizeLast=0;collapsible=1;marginBottom=0;rounded=0;shadow=0;strokeWidth=1;" parent="WIyWlLk6GJQsqaUBKTNV-1" vertex="1">
          <mxGeometry x="4" y="259" width="196" height="161" as="geometry">
            <mxRectangle x="340" y="380" width="170" height="26" as="alternateBounds" />
          </mxGeometry>
        </mxCell>
        <mxCell id="zkfFHV4jXpPFQw0GAbJ--14" value="- numCarte: String&#xa;- dateExpiration: String&#xa;- cvv: String&#xa;- reservation: Reservation&#xa;" style="text;align=left;verticalAlign=top;spacingLeft=4;spacingRight=4;overflow=hidden;rotatable=0;points=[[0,0.5],[1,0.5]];portConstraint=eastwest;" parent="zkfFHV4jXpPFQw0GAbJ--13" vertex="1">
          <mxGeometry y="26" width="196" height="64" as="geometry" />
        </mxCell>
        <mxCell id="72NK75Pq63yZoZNNX_Wh-2" value="" style="endArrow=none;html=1;rounded=0;exitX=0;exitY=-0.024;exitDx=0;exitDy=0;exitPerimeter=0;entryX=0.999;entryY=-0.011;entryDx=0;entryDy=0;entryPerimeter=0;" parent="zkfFHV4jXpPFQw0GAbJ--13" target="dlQvrzCghN_BrbJXEZEQ-10" edge="1">
          <mxGeometry width="50" height="50" relative="1" as="geometry">
            <mxPoint x="0.2800000000002274" y="90.00000000000006" as="sourcePoint" />
            <mxPoint x="189.7100000000003" y="91.82" as="targetPoint" />
          </mxGeometry>
        </mxCell>
        <mxCell id="dlQvrzCghN_BrbJXEZEQ-10" value="+ verifierCvv(): Boolean&#xa;+ verifierDateExpiration(): Boolean&#xa;+ verifierNumCarte(): Boolean&#xa;+ afficherMontant(): String" style="text;align=left;verticalAlign=top;spacingLeft=4;spacingRight=4;overflow=hidden;rotatable=0;points=[[0,0.5],[1,0.5]];portConstraint=eastwest;" parent="zkfFHV4jXpPFQw0GAbJ--13" vertex="1">
          <mxGeometry y="90" width="196" height="70" as="geometry" />
        </mxCell>
        <mxCell id="zkfFHV4jXpPFQw0GAbJ--17" value="Identification" style="swimlane;fontStyle=0;align=center;verticalAlign=top;childLayout=stackLayout;horizontal=1;startSize=26;horizontalStack=0;resizeParent=1;resizeLast=0;collapsible=1;marginBottom=0;rounded=0;shadow=0;strokeWidth=1;" parent="WIyWlLk6GJQsqaUBKTNV-1" vertex="1">
          <mxGeometry x="264" y="209" width="276" height="190" as="geometry">
            <mxRectangle x="550" y="140" width="160" height="26" as="alternateBounds" />
          </mxGeometry>
        </mxCell>
        <mxCell id="zkfFHV4jXpPFQw0GAbJ--18" value="- nom: String&#xa;- prenom: String&#xa;- email: String&#xa;- motDePasse: String&#xa;- telephone: String&#xa;" style="text;align=left;verticalAlign=top;spacingLeft=4;spacingRight=4;overflow=hidden;rotatable=0;points=[[0,0.5],[1,0.5]];portConstraint=eastwest;" parent="zkfFHV4jXpPFQw0GAbJ--17" vertex="1">
          <mxGeometry y="26" width="276" height="84" as="geometry" />
        </mxCell>
        <mxCell id="zkfFHV4jXpPFQw0GAbJ--23" value="" style="line;html=1;strokeWidth=1;align=left;verticalAlign=middle;spacingTop=-1;spacingLeft=3;spacingRight=3;rotatable=0;labelPosition=right;points=[];portConstraint=eastwest;" parent="zkfFHV4jXpPFQw0GAbJ--17" vertex="1">
          <mxGeometry y="110" width="276" height="10" as="geometry" />
        </mxCell>
        <mxCell id="zkfFHV4jXpPFQw0GAbJ--24" value="+ verifierDonnees(): Boolean&#xa;" style="text;align=left;verticalAlign=top;spacingLeft=4;spacingRight=4;overflow=hidden;rotatable=0;points=[[0,0.5],[1,0.5]];portConstraint=eastwest;" parent="zkfFHV4jXpPFQw0GAbJ--17" vertex="1">
          <mxGeometry y="120" width="276" height="20" as="geometry" />
        </mxCell>
        <mxCell id="NYK4G4JIHn3Qf-9X5thW-29" value="&lt;div&gt;&lt;span style=&quot;text-wrap-mode: nowrap;&quot;&gt;+ &lt;u&gt;emailEstValide(&lt;/u&gt;email: String): Boolean&lt;/span&gt;&lt;/div&gt;&lt;div&gt;&lt;span style=&quot;text-wrap-mode: nowrap;&quot;&gt;+ &lt;u&gt;telephoneEstValide&lt;/u&gt;(telephone: String): Boolean&lt;/span&gt;&lt;/div&gt;" style="text;whiteSpace=wrap;html=1;" vertex="1" parent="zkfFHV4jXpPFQw0GAbJ--17">
          <mxGeometry y="140" width="276" height="50" as="geometry" />
        </mxCell>
        <mxCell id="dlQvrzCghN_BrbJXEZEQ-11" value="&lt;&lt;Singleton&gt;&gt;: VehicleRepository" style="swimlane;fontStyle=0;align=center;verticalAlign=top;childLayout=stackLayout;horizontal=1;startSize=26;horizontalStack=0;resizeParent=1;resizeLast=0;collapsible=1;marginBottom=0;rounded=0;shadow=0;strokeWidth=1;" parent="WIyWlLk6GJQsqaUBKTNV-1" vertex="1">
          <mxGeometry x="-116" y="9" width="346" height="180" as="geometry">
            <mxRectangle x="340" y="380" width="170" height="26" as="alternateBounds" />
          </mxGeometry>
        </mxCell>
        <mxCell id="EN0qMKBzVGV7fdGjZQlH-4" value="&lt;div style=&quot;forced-color-adjust: none; padding: 0px; margin: 0px;&quot;&gt;&amp;nbsp;- sharedPreferences: SharedPreferences&lt;/div&gt;&lt;div style=&quot;forced-color-adjust: none; padding: 0px; margin: 0px;&quot;&gt;&amp;nbsp;- vehiclesByParking: MutableMap&amp;lt;String, MutableList&amp;lt;String&amp;gt;&amp;gt;&lt;/div&gt;" style="text;whiteSpace=wrap;html=1;" parent="dlQvrzCghN_BrbJXEZEQ-11" vertex="1">
          <mxGeometry y="26" width="346" height="40" as="geometry" />
        </mxCell>
        <mxCell id="dlQvrzCghN_BrbJXEZEQ-13" value="" style="line;html=1;strokeWidth=1;align=left;verticalAlign=middle;spacingTop=-1;spacingLeft=3;spacingRight=3;rotatable=0;labelPosition=right;points=[];portConstraint=eastwest;" parent="dlQvrzCghN_BrbJXEZEQ-11" vertex="1">
          <mxGeometry y="66" width="346" height="24" as="geometry" />
        </mxCell>
        <mxCell id="dlQvrzCghN_BrbJXEZEQ-15" value="+ addVehicle(vehicleDescription: String, parkingKey: String)&#xa;+ getVehicles(parkingKey: String): List&lt;String&gt;&#xa;+ removeVehicle(vehicle: String, parking: String)&#xa;- saveVehicles()Â &#xa;- loadVehicles()&#xa;" style="text;align=left;verticalAlign=top;spacingLeft=4;spacingRight=4;overflow=hidden;rotatable=0;points=[[0,0.5],[1,0.5]];portConstraint=eastwest;" parent="dlQvrzCghN_BrbJXEZEQ-11" vertex="1">
          <mxGeometry y="90" width="346" height="78" as="geometry" />
        </mxCell>
        <mxCell id="dlQvrzCghN_BrbJXEZEQ-43" value="VoitureElectrique" style="swimlane;fontStyle=0;align=center;verticalAlign=top;childLayout=stackLayout;horizontal=1;startSize=26;horizontalStack=0;resizeParent=1;resizeLast=0;collapsible=1;marginBottom=0;rounded=0;shadow=0;strokeWidth=1;" parent="WIyWlLk6GJQsqaUBKTNV-1" vertex="1">
          <mxGeometry x="-63" y="726" width="200" height="190" as="geometry">
            <mxRectangle x="340" y="380" width="170" height="26" as="alternateBounds" />
          </mxGeometry>
        </mxCell>
        <mxCell id="dlQvrzCghN_BrbJXEZEQ-44" value="+ marque: String&#xa;+ modele: String&#xa;+ annee: Int&#xa;+ couleur: String&#xa;+ tarif: Double&#xa;+ type: String" style="text;align=left;verticalAlign=top;spacingLeft=4;spacingRight=4;overflow=hidden;rotatable=0;points=[[0,0.5],[1,0.5]];portConstraint=eastwest;" parent="dlQvrzCghN_BrbJXEZEQ-43" vertex="1">
          <mxGeometry y="26" width="200" height="104" as="geometry" />
        </mxCell>
        <mxCell id="dlQvrzCghN_BrbJXEZEQ-45" value="" style="line;html=1;strokeWidth=1;align=left;verticalAlign=middle;spacingTop=-1;spacingLeft=3;spacingRight=3;rotatable=0;labelPosition=right;points=[];portConstraint=eastwest;" parent="dlQvrzCghN_BrbJXEZEQ-43" vertex="1">
          <mxGeometry y="130" width="200" height="20" as="geometry" />
        </mxCell>
        <mxCell id="q5ZdvfwIaH_BukOoBvkz-9" value="&amp;nbsp;+ appliquerReduction(): String&lt;div&gt;&amp;nbsp;+ afficherConsommation(): String&lt;/div&gt;" style="text;html=1;align=left;verticalAlign=middle;resizable=0;points=[];autosize=1;strokeColor=none;fillColor=none;" parent="dlQvrzCghN_BrbJXEZEQ-43" vertex="1">
          <mxGeometry y="150" width="200" height="40" as="geometry" />
        </mxCell>
        <mxCell id="dlQvrzCghN_BrbJXEZEQ-51" value="VoitureEssence" style="swimlane;fontStyle=0;align=center;verticalAlign=top;childLayout=stackLayout;horizontal=1;startSize=26;horizontalStack=0;resizeParent=1;resizeLast=0;collapsible=1;marginBottom=0;rounded=0;shadow=0;strokeWidth=1;" parent="WIyWlLk6GJQsqaUBKTNV-1" vertex="1">
          <mxGeometry x="143" y="726" width="190" height="190" as="geometry">
            <mxRectangle x="340" y="380" width="170" height="26" as="alternateBounds" />
          </mxGeometry>
        </mxCell>
        <mxCell id="dlQvrzCghN_BrbJXEZEQ-52" value="+ marque: String&#xa;+ modele: String&#xa;+ annee: Int&#xa;+ couleur: String&#xa;+ tarif: Double&#xa;+ type: String" style="text;align=left;verticalAlign=top;spacingLeft=4;spacingRight=4;overflow=hidden;rotatable=0;points=[[0,0.5],[1,0.5]];portConstraint=eastwest;" parent="dlQvrzCghN_BrbJXEZEQ-51" vertex="1">
          <mxGeometry y="26" width="190" height="104" as="geometry" />
        </mxCell>
        <mxCell id="dlQvrzCghN_BrbJXEZEQ-53" value="" style="line;html=1;strokeWidth=1;align=left;verticalAlign=middle;spacingTop=-1;spacingLeft=3;spacingRight=3;rotatable=0;labelPosition=right;points=[];portConstraint=eastwest;" parent="dlQvrzCghN_BrbJXEZEQ-51" vertex="1">
          <mxGeometry y="130" width="190" height="20" as="geometry" />
        </mxCell>
        <mxCell id="q5ZdvfwIaH_BukOoBvkz-11" value="&amp;nbsp;+ appliquerReduction(): String&lt;div&gt;&amp;nbsp;+ afficherConsomation(): String&lt;/div&gt;" style="text;html=1;align=left;verticalAlign=middle;resizable=0;points=[];autosize=1;strokeColor=none;fillColor=none;" parent="dlQvrzCghN_BrbJXEZEQ-51" vertex="1">
          <mxGeometry y="150" width="190" height="40" as="geometry" />
        </mxCell>
        <mxCell id="hXRZ9EuoikfmnPwUV8iC-0" value="Â« Interface Â» : Energie" style="swimlane;fontStyle=0;align=center;verticalAlign=top;childLayout=stackLayout;horizontal=1;startSize=26;horizontalStack=0;resizeParent=1;resizeLast=0;collapsible=1;marginBottom=0;rounded=0;shadow=0;strokeWidth=1;" parent="WIyWlLk6GJQsqaUBKTNV-1" vertex="1">
          <mxGeometry x="39" y="992" width="180" height="60" as="geometry">
            <mxRectangle x="130" y="380" width="160" height="26" as="alternateBounds" />
          </mxGeometry>
        </mxCell>
        <mxCell id="hXRZ9EuoikfmnPwUV8iC-10" value="+ etatEnergie(): String" style="text;align=left;verticalAlign=top;spacingLeft=4;spacingRight=4;overflow=hidden;rotatable=0;points=[[0,0.5],[1,0.5]];portConstraint=eastwest;" parent="hXRZ9EuoikfmnPwUV8iC-0" vertex="1">
          <mxGeometry y="26" width="180" height="34" as="geometry" />
        </mxCell>
        <mxCell id="ZWuNpR_UvRiYobBCLTKQ-0" value="Utilisateur" style="swimlane;fontStyle=0;align=center;verticalAlign=top;childLayout=stackLayout;horizontal=1;startSize=26;horizontalStack=0;resizeParent=1;resizeLast=0;collapsible=1;marginBottom=0;rounded=0;shadow=0;strokeWidth=1;" parent="WIyWlLk6GJQsqaUBKTNV-1" vertex="1">
          <mxGeometry x="-252" y="699" width="170" height="141" as="geometry">
            <mxRectangle x="340" y="380" width="170" height="26" as="alternateBounds" />
          </mxGeometry>
        </mxCell>
        <mxCell id="ZWuNpR_UvRiYobBCLTKQ-3" value="+ nom: String&#xa;+ prenom: String&#xa;+ email: String&#xa;+ telephone: String&#xa;&#xa;&#xa;" style="text;align=left;verticalAlign=top;spacingLeft=4;spacingRight=4;overflow=hidden;rotatable=0;points=[[0,0.5],[1,0.5]];portConstraint=eastwest;" parent="ZWuNpR_UvRiYobBCLTKQ-0" vertex="1">
          <mxGeometry y="26" width="170" height="74" as="geometry" />
        </mxCell>
        <mxCell id="ZWuNpR_UvRiYobBCLTKQ-2" value="" style="line;html=1;strokeWidth=1;align=left;verticalAlign=middle;spacingTop=-1;spacingLeft=3;spacingRight=3;rotatable=0;labelPosition=right;points=[];portConstraint=eastwest;" parent="ZWuNpR_UvRiYobBCLTKQ-0" vertex="1">
          <mxGeometry y="100" width="170" height="10" as="geometry" />
        </mxCell>
        <mxCell id="mOmajmSAC5vP-u8jIPm8-1" value="&lt;div style=&quot;forced-color-adjust: none; padding: 0px; margin: 0px;&quot;&gt;&amp;nbsp;+ getNomComplet(): String&lt;/div&gt;" style="text;whiteSpace=wrap;html=1;" parent="ZWuNpR_UvRiYobBCLTKQ-0" vertex="1">
          <mxGeometry y="110" width="170" height="20" as="geometry" />
        </mxCell>
        <mxCell id="mOmajmSAC5vP-u8jIPm8-25" value="Â« Interface Â» : Observer" style="swimlane;fontStyle=0;align=center;verticalAlign=top;childLayout=stackLayout;horizontal=1;startSize=26;horizontalStack=0;resizeParent=1;resizeLast=0;collapsible=1;marginBottom=0;rounded=0;shadow=0;strokeWidth=1;" parent="WIyWlLk6GJQsqaUBKTNV-1" vertex="1">
          <mxGeometry x="-257" y="879" width="180" height="81" as="geometry">
            <mxRectangle x="130" y="380" width="160" height="26" as="alternateBounds" />
          </mxGeometry>
        </mxCell>
        <mxCell id="72NK75Pq63yZoZNNX_Wh-5" value="" style="endArrow=none;html=1;rounded=0;entryX=1;entryY=0.5;entryDx=0;entryDy=0;exitX=0;exitY=0.5;exitDx=0;exitDy=0;" parent="mOmajmSAC5vP-u8jIPm8-25" source="mOmajmSAC5vP-u8jIPm8-26" target="mOmajmSAC5vP-u8jIPm8-26" edge="1">
          <mxGeometry width="50" height="50" relative="1" as="geometry">
            <mxPoint x="60" y="83" as="sourcePoint" />
            <mxPoint x="110" y="33" as="targetPoint" />
          </mxGeometry>
        </mxCell>
        <mxCell id="mOmajmSAC5vP-u8jIPm8-26" value="&#xa;&#xa;+ mettreAJour()" style="text;align=left;verticalAlign=top;spacingLeft=4;spacingRight=4;overflow=hidden;rotatable=0;points=[[0,0.5],[1,0.5]];portConstraint=eastwest;" parent="mOmajmSAC5vP-u8jIPm8-25" vertex="1">
          <mxGeometry y="26" width="180" height="54" as="geometry" />
        </mxCell>
        <mxCell id="mOmajmSAC5vP-u8jIPm8-11" value="Parking" style="swimlane;fontStyle=0;align=center;verticalAlign=top;childLayout=stackLayout;horizontal=1;startSize=26;horizontalStack=0;resizeParent=1;resizeLast=0;collapsible=1;marginBottom=0;rounded=0;shadow=0;strokeWidth=1;" parent="WIyWlLk6GJQsqaUBKTNV-1" vertex="1">
          <mxGeometry x="-247" y="249" width="200" height="116" as="geometry">
            <mxRectangle x="340" y="380" width="170" height="26" as="alternateBounds" />
          </mxGeometry>
        </mxCell>
        <mxCell id="15vQisNoADWILtoJu8x2-9" value="&amp;nbsp;- parkingKey: String" style="text;html=1;align=left;verticalAlign=middle;resizable=0;points=[];autosize=1;strokeColor=none;fillColor=none;" parent="mOmajmSAC5vP-u8jIPm8-11" vertex="1">
          <mxGeometry y="26" width="200" height="30" as="geometry" />
        </mxCell>
        <mxCell id="15vQisNoADWILtoJu8x2-12" value="&amp;nbsp;- obtenirVoitures(): List&amp;lt;String&amp;gt;&lt;div&gt;+ obtenirNombreDeVoitures(): Int&lt;br&gt;&lt;div&gt;&lt;div&gt;&lt;br&gt;&lt;/div&gt;&lt;/div&gt;&lt;/div&gt;" style="text;html=1;align=left;verticalAlign=middle;resizable=0;points=[];autosize=1;strokeColor=none;fillColor=none;" parent="mOmajmSAC5vP-u8jIPm8-11" vertex="1">
          <mxGeometry y="56" width="200" height="60" as="geometry" />
        </mxCell>
        <mxCell id="15vQisNoADWILtoJu8x2-10" value="" style="endArrow=none;html=1;rounded=0;entryX=0;entryY=1;entryDx=0;entryDy=0;entryPerimeter=0;exitX=0.996;exitY=0;exitDx=0;exitDy=0;exitPerimeter=0;" parent="mOmajmSAC5vP-u8jIPm8-11" source="15vQisNoADWILtoJu8x2-12" target="15vQisNoADWILtoJu8x2-9" edge="1">
          <mxGeometry width="50" height="50" relative="1" as="geometry">
            <mxPoint x="161" y="90" as="sourcePoint" />
            <mxPoint x="1.2000000000000455" y="85.34000000000003" as="targetPoint" />
          </mxGeometry>
        </mxCell>
        <mxCell id="IVG7OwEqO3TIuX3025wL-5" value="Â« Interface Â» : Notifier" style="swimlane;fontStyle=0;align=center;verticalAlign=top;childLayout=stackLayout;horizontal=1;startSize=26;horizontalStack=0;resizeParent=1;resizeLast=0;collapsible=1;marginBottom=0;rounded=0;shadow=0;strokeWidth=1;" parent="WIyWlLk6GJQsqaUBKTNV-1" vertex="1">
          <mxGeometry x="350" y="932" width="170" height="68" as="geometry">
            <mxRectangle x="130" y="380" width="160" height="26" as="alternateBounds" />
          </mxGeometry>
        </mxCell>
        <mxCell id="IVG7OwEqO3TIuX3025wL-1" value="ToastNotifier" style="swimlane;fontStyle=0;align=center;verticalAlign=top;childLayout=stackLayout;horizontal=1;startSize=26;horizontalStack=0;resizeParent=1;resizeLast=0;collapsible=1;marginBottom=0;rounded=0;shadow=0;strokeWidth=1;" parent="WIyWlLk6GJQsqaUBKTNV-1" vertex="1">
          <mxGeometry x="360" y="750" width="170" height="110" as="geometry">
            <mxRectangle x="340" y="380" width="170" height="26" as="alternateBounds" />
          </mxGeometry>
        </mxCell>
        <mxCell id="NYK4G4JIHn3Qf-9X5thW-21" value="- context: Context" style="text;html=1;align=left;verticalAlign=middle;resizable=0;points=[];autosize=1;strokeColor=none;fillColor=none;" vertex="1" parent="IVG7OwEqO3TIuX3025wL-1">
          <mxGeometry y="26" width="170" height="30" as="geometry" />
        </mxCell>
        <mxCell id="IVG7OwEqO3TIuX3025wL-3" value="" style="line;html=1;strokeWidth=1;align=left;verticalAlign=middle;spacingTop=-1;spacingLeft=3;spacingRight=3;rotatable=0;labelPosition=right;points=[];portConstraint=eastwest;" parent="IVG7OwEqO3TIuX3025wL-1" vertex="1">
          <mxGeometry y="56" width="170" height="20" as="geometry" />
        </mxCell>
        <mxCell id="15vQisNoADWILtoJu8x2-31" value="&amp;nbsp;+ notify(message: String)&amp;nbsp;" style="text;html=1;align=left;verticalAlign=middle;resizable=0;points=[];autosize=1;strokeColor=none;fillColor=none;" parent="IVG7OwEqO3TIuX3025wL-1" vertex="1">
          <mxGeometry y="76" width="170" height="30" as="geometry" />
        </mxCell>
        <mxCell id="mOmajmSAC5vP-u8jIPm8-3" value="Â« Interface Â» : Observable" style="swimlane;fontStyle=0;align=center;verticalAlign=top;childLayout=stackLayout;horizontal=1;startSize=26;horizontalStack=0;resizeParent=1;resizeLast=0;collapsible=1;marginBottom=0;rounded=0;shadow=0;strokeWidth=1;" parent="WIyWlLk6GJQsqaUBKTNV-1" vertex="1">
          <mxGeometry x="-262" y="1030" width="222" height="112" as="geometry">
            <mxRectangle x="340" y="380" width="170" height="26" as="alternateBounds" />
          </mxGeometry>
        </mxCell>
        <mxCell id="IVG7OwEqO3TIuX3025wL-4" value="&lt;div style=&quot;forced-color-adjust: none; padding: 0px; margin: 0px;&quot;&gt;&lt;br&gt;&lt;/div&gt;" style="text;whiteSpace=wrap;html=1;" parent="mOmajmSAC5vP-u8jIPm8-3" vertex="1">
          <mxGeometry y="26" width="222" height="4" as="geometry" />
        </mxCell>
        <mxCell id="15vQisNoADWILtoJu8x2-18" value="&amp;nbsp;+ observateurs: MutableList&amp;lt;Observer&amp;gt;" style="text;html=1;align=left;verticalAlign=middle;resizable=0;points=[];autosize=1;strokeColor=none;fillColor=none;" parent="mOmajmSAC5vP-u8jIPm8-3" vertex="1">
          <mxGeometry y="30" width="222" height="30" as="geometry" />
        </mxCell>
        <mxCell id="15vQisNoADWILtoJu8x2-19" value="" style="endArrow=none;html=1;rounded=0;exitX=-0.003;exitY=0.933;exitDx=0;exitDy=0;exitPerimeter=0;entryX=0.993;entryY=0.004;entryDx=0;entryDy=0;entryPerimeter=0;" parent="mOmajmSAC5vP-u8jIPm8-3" edge="1" target="15vQisNoADWILtoJu8x2-20">
          <mxGeometry width="50" height="50" relative="1" as="geometry">
            <mxPoint x="-5.46229728115577e-14" y="60.00000000000001" as="sourcePoint" />
            <mxPoint x="228.62000000000006" y="60.69000000000006" as="targetPoint" />
          </mxGeometry>
        </mxCell>
        <mxCell id="15vQisNoADWILtoJu8x2-20" value="&amp;nbsp;+ ajouter(observateur: Observer)&lt;div&gt;&amp;nbsp;+ notifier()&lt;/div&gt;" style="text;html=1;align=left;verticalAlign=middle;resizable=0;points=[];autosize=1;strokeColor=none;fillColor=none;" parent="mOmajmSAC5vP-u8jIPm8-3" vertex="1">
          <mxGeometry y="60" width="222" height="40" as="geometry" />
        </mxCell>
        <mxCell id="bBhzwOf6UtHtZnOHIbRP-9" value="" style="endArrow=block;dashed=1;endFill=0;endSize=12;html=1;rounded=0;entryX=0.532;entryY=-0.002;entryDx=0;entryDy=0;entryPerimeter=0;" parent="WIyWlLk6GJQsqaUBKTNV-1" edge="1" target="NYK4G4JIHn3Qf-9X5thW-10">
          <mxGeometry width="160" relative="1" as="geometry">
            <mxPoint x="440" y="860" as="sourcePoint" />
            <mxPoint x="440" y="929" as="targetPoint" />
          </mxGeometry>
        </mxCell>
        <mxCell id="bBhzwOf6UtHtZnOHIbRP-10" value="" style="endArrow=block;dashed=1;endFill=0;endSize=12;html=1;rounded=0;exitX=0.535;exitY=1.028;exitDx=0;exitDy=0;exitPerimeter=0;entryX=-0.005;entryY=0.167;entryDx=0;entryDy=0;entryPerimeter=0;" parent="WIyWlLk6GJQsqaUBKTNV-1" source="15vQisNoADWILtoJu8x2-3" target="mOmajmSAC5vP-u8jIPm8-25" edge="1">
          <mxGeometry width="160" relative="1" as="geometry">
            <mxPoint x="-400.2399999999998" y="365.73" as="sourcePoint" />
            <mxPoint x="114" y="619" as="targetPoint" />
            <Array as="points">
              <mxPoint x="-400" y="893" />
            </Array>
          </mxGeometry>
        </mxCell>
        <mxCell id="15vQisNoADWILtoJu8x2-0" value="" style="endArrow=diamondThin;endFill=1;endSize=24;html=1;rounded=0;entryX=0;entryY=0.1;entryDx=0;entryDy=0;entryPerimeter=0;exitX=-0.001;exitY=0.076;exitDx=0;exitDy=0;exitPerimeter=0;" parent="WIyWlLk6GJQsqaUBKTNV-1" source="ZWuNpR_UvRiYobBCLTKQ-0" target="zkfFHV4jXpPFQw0GAbJ--17" edge="1">
          <mxGeometry width="160" relative="1" as="geometry">
            <mxPoint x="-276" y="719" as="sourcePoint" />
            <mxPoint x="204" y="559" as="targetPoint" />
            <Array as="points">
              <mxPoint x="-280" y="710" />
              <mxPoint x="-276" y="229" />
            </Array>
          </mxGeometry>
        </mxCell>
        <mxCell id="15vQisNoADWILtoJu8x2-2" value="&lt;div&gt;&lt;pre style=&quot;&quot;&gt;&lt;font style=&quot;color: light-dark(rgb(0, 0, 0), rgb(255, 255, 255));&quot; face=&quot;Helvetica&quot;&gt;StatistiquesParking&lt;/font&gt;&lt;/pre&gt;&lt;/div&gt;" style="swimlane;fontStyle=0;childLayout=stackLayout;horizontal=1;startSize=26;fillColor=none;horizontalStack=0;resizeParent=1;resizeParentMax=0;resizeLast=0;collapsible=1;marginBottom=0;whiteSpace=wrap;html=1;" parent="WIyWlLk6GJQsqaUBKTNV-1" vertex="1">
          <mxGeometry x="-496" y="285" width="180" height="70" as="geometry" />
        </mxCell>
        <mxCell id="15vQisNoADWILtoJu8x2-3" value="- parking: Parking&lt;div&gt;- nombreDeVoitures: Int&lt;/div&gt;" style="text;strokeColor=none;fillColor=none;align=left;verticalAlign=top;spacingLeft=4;spacingRight=4;overflow=hidden;rotatable=0;points=[[0,0.5],[1,0.5]];portConstraint=eastwest;whiteSpace=wrap;html=1;" parent="15vQisNoADWILtoJu8x2-2" vertex="1">
          <mxGeometry y="26" width="180" height="44" as="geometry" />
        </mxCell>
        <mxCell id="15vQisNoADWILtoJu8x2-14" value="" style="endArrow=block;dashed=1;endFill=0;endSize=12;html=1;rounded=0;exitX=-0.01;exitY=0.152;exitDx=0;exitDy=0;exitPerimeter=0;entryX=-0.003;entryY=0.183;entryDx=0;entryDy=0;entryPerimeter=0;" parent="WIyWlLk6GJQsqaUBKTNV-1" source="15vQisNoADWILtoJu8x2-9" target="mOmajmSAC5vP-u8jIPm8-3" edge="1">
          <mxGeometry width="160" relative="1" as="geometry">
            <mxPoint x="-156" y="599" as="sourcePoint" />
            <mxPoint x="-255" y="1050" as="targetPoint" />
            <Array as="points">
              <mxPoint x="-290" y="280" />
              <mxPoint x="-290" y="1050" />
            </Array>
          </mxGeometry>
        </mxCell>
        <mxCell id="15vQisNoADWILtoJu8x2-24" value="&lt;span style=&quot;font-weight: normal;&quot;&gt;VehicleAdapter&lt;/span&gt;" style="swimlane;fontStyle=1;align=center;verticalAlign=top;childLayout=stackLayout;horizontal=1;startSize=26;horizontalStack=0;resizeParent=1;resizeParentMax=0;resizeLast=0;collapsible=1;marginBottom=0;whiteSpace=wrap;html=1;" parent="WIyWlLk6GJQsqaUBKTNV-1" vertex="1">
          <mxGeometry x="-247" y="459" width="207" height="120" as="geometry" />
        </mxCell>
        <mxCell id="NYK4G4JIHn3Qf-9X5thW-26" value="+ context: Context&lt;div&gt;+ vehicles: List&amp;lt;Pair&amp;lt;String, String&amp;gt;&amp;gt;&lt;/div&gt;" style="text;html=1;align=left;verticalAlign=middle;resizable=0;points=[];autosize=1;strokeColor=none;fillColor=none;" vertex="1" parent="15vQisNoADWILtoJu8x2-24">
          <mxGeometry y="26" width="207" height="40" as="geometry" />
        </mxCell>
        <mxCell id="15vQisNoADWILtoJu8x2-26" value="" style="line;strokeWidth=1;fillColor=none;align=left;verticalAlign=middle;spacingTop=-1;spacingLeft=3;spacingRight=3;rotatable=0;labelPosition=right;points=[];portConstraint=eastwest;strokeColor=inherit;" parent="15vQisNoADWILtoJu8x2-24" vertex="1">
          <mxGeometry y="66" width="207" height="8" as="geometry" />
        </mxCell>
        <mxCell id="15vQisNoADWILtoJu8x2-27" value="+ getView(position: Int, convertView: View?, parent: ViewGroup): View" style="text;strokeColor=none;fillColor=none;align=left;verticalAlign=top;spacingLeft=4;spacingRight=4;overflow=hidden;rotatable=0;points=[[0,0.5],[1,0.5]];portConstraint=eastwest;whiteSpace=wrap;html=1;" parent="15vQisNoADWILtoJu8x2-24" vertex="1">
          <mxGeometry y="74" width="207" height="46" as="geometry" />
        </mxCell>
        <mxCell id="q5ZdvfwIaH_BukOoBvkz-1" value="" style="endArrow=diamondThin;endFill=0;endSize=24;html=1;rounded=0;entryX=-0.011;entryY=0.038;entryDx=0;entryDy=0;entryPerimeter=0;exitX=0.999;exitY=0.08;exitDx=0;exitDy=0;exitPerimeter=0;" parent="WIyWlLk6GJQsqaUBKTNV-1" source="zkfFHV4jXpPFQw0GAbJ--13" target="zkfFHV4jXpPFQw0GAbJ--6" edge="1">
          <mxGeometry width="160" relative="1" as="geometry">
            <mxPoint x="195" y="270" as="sourcePoint" />
            <mxPoint x="310" y="442" as="targetPoint" />
            <Array as="points">
              <mxPoint x="240" y="272" />
              <mxPoint x="240" y="450" />
            </Array>
          </mxGeometry>
        </mxCell>
        <mxCell id="q5ZdvfwIaH_BukOoBvkz-2" value="" style="endArrow=diamondThin;endFill=0;endSize=24;html=1;rounded=0;entryX=0.003;entryY=0.108;entryDx=0;entryDy=0;entryPerimeter=0;" parent="WIyWlLk6GJQsqaUBKTNV-1" target="zkfFHV4jXpPFQw0GAbJ--0" edge="1">
          <mxGeometry width="160" relative="1" as="geometry">
            <mxPoint x="-30" y="190" as="sourcePoint" />
            <mxPoint x="-30" y="470" as="targetPoint" />
            <Array as="points">
              <mxPoint x="-30" y="400" />
              <mxPoint x="-30" y="480" />
            </Array>
          </mxGeometry>
        </mxCell>
        <mxCell id="72NK75Pq63yZoZNNX_Wh-8" style="edgeStyle=orthogonalEdgeStyle;rounded=0;orthogonalLoop=1;jettySize=auto;html=1;endArrow=block;endFill=0;exitX=0.25;exitY=0;exitDx=0;exitDy=0;" parent="WIyWlLk6GJQsqaUBKTNV-1" edge="1" source="dlQvrzCghN_BrbJXEZEQ-51">
          <mxGeometry relative="1" as="geometry">
            <mxPoint x="190" y="694" as="sourcePoint" />
            <mxPoint x="190" y="650" as="targetPoint" />
          </mxGeometry>
        </mxCell>
        <mxCell id="NYK4G4JIHn3Qf-9X5thW-0" value="" style="endArrow=block;dashed=1;endFill=0;endSize=12;html=1;rounded=0;entryX=0.333;entryY=-0.011;entryDx=0;entryDy=0;entryPerimeter=0;" edge="1" parent="WIyWlLk6GJQsqaUBKTNV-1" target="hXRZ9EuoikfmnPwUV8iC-0">
          <mxGeometry width="160" relative="1" as="geometry">
            <mxPoint x="9" y="916" as="sourcePoint" />
            <mxPoint x="119" y="916" as="targetPoint" />
            <Array as="points">
              <mxPoint x="9" y="952" />
              <mxPoint x="99" y="952" />
            </Array>
          </mxGeometry>
        </mxCell>
        <mxCell id="NYK4G4JIHn3Qf-9X5thW-1" value="" style="endArrow=block;dashed=1;endFill=0;endSize=12;html=1;rounded=0;exitX=0.505;exitY=1.011;exitDx=0;exitDy=0;exitPerimeter=0;" edge="1" parent="WIyWlLk6GJQsqaUBKTNV-1" source="q5ZdvfwIaH_BukOoBvkz-11">
          <mxGeometry width="160" relative="1" as="geometry">
            <mxPoint x="149" y="1012" as="sourcePoint" />
            <mxPoint x="159" y="992" as="targetPoint" />
            <Array as="points">
              <mxPoint x="239" y="952" />
              <mxPoint x="159" y="952" />
            </Array>
          </mxGeometry>
        </mxCell>
        <mxCell id="NYK4G4JIHn3Qf-9X5thW-2" style="edgeStyle=orthogonalEdgeStyle;rounded=0;orthogonalLoop=1;jettySize=auto;html=1;endArrow=block;endFill=0;exitX=0.613;exitY=-0.001;exitDx=0;exitDy=0;exitPerimeter=0;" edge="1" parent="WIyWlLk6GJQsqaUBKTNV-1" source="dlQvrzCghN_BrbJXEZEQ-43">
          <mxGeometry relative="1" as="geometry">
            <mxPoint x="60" y="720" as="sourcePoint" />
            <mxPoint x="60" y="650" as="targetPoint" />
          </mxGeometry>
        </mxCell>
        <mxCell id="NYK4G4JIHn3Qf-9X5thW-4" value="" style="endArrow=none;html=1;rounded=0;exitX=1;exitY=0.335;exitDx=0;exitDy=0;exitPerimeter=0;entryX=0;entryY=0.5;entryDx=0;entryDy=0;" edge="1" parent="WIyWlLk6GJQsqaUBKTNV-1" source="EN0qMKBzVGV7fdGjZQlH-0" target="zkfFHV4jXpPFQw0GAbJ--7">
          <mxGeometry width="50" height="50" relative="1" as="geometry">
            <mxPoint x="264" y="545" as="sourcePoint" />
            <mxPoint x="330" y="520" as="targetPoint" />
          </mxGeometry>
        </mxCell>
        <mxCell id="NYK4G4JIHn3Qf-9X5thW-6" value="&lt;span style=&quot;text-wrap-mode: nowrap;&quot;&gt;1..n&lt;/span&gt;" style="text;whiteSpace=wrap;html=1;" vertex="1" parent="WIyWlLk6GJQsqaUBKTNV-1">
          <mxGeometry x="270" y="500" width="30" height="20" as="geometry" />
        </mxCell>
        <mxCell id="NYK4G4JIHn3Qf-9X5thW-7" value="" style="endArrow=block;endFill=1;html=1;edgeStyle=orthogonalEdgeStyle;align=left;verticalAlign=top;rounded=0;entryX=0;entryY=0.086;entryDx=0;entryDy=0;entryPerimeter=0;" edge="1" parent="WIyWlLk6GJQsqaUBKTNV-1">
          <mxGeometry x="-1" relative="1" as="geometry">
            <mxPoint x="-400" y="285" as="sourcePoint" />
            <mxPoint x="-247" y="259.996" as="targetPoint" />
            <Array as="points">
              <mxPoint x="-400" y="284.73" />
              <mxPoint x="-400" y="259.73" />
            </Array>
          </mxGeometry>
        </mxCell>
        <mxCell id="NYK4G4JIHn3Qf-9X5thW-10" value="&lt;br style=&quot;padding: 0px; margin: 0px; text-wrap-mode: nowrap;&quot;&gt;&lt;br style=&quot;padding: 0px; margin: 0px; text-wrap-mode: nowrap;&quot;&gt;&lt;span style=&quot;text-wrap-mode: nowrap;&quot;&gt;+ notify(message: String)&lt;/span&gt;" style="text;whiteSpace=wrap;html=1;" vertex="1" parent="WIyWlLk6GJQsqaUBKTNV-1">
          <mxGeometry x="360" y="932" width="150" height="120" as="geometry" />
        </mxCell>
        <mxCell id="NYK4G4JIHn3Qf-9X5thW-11" value="" style="endArrow=none;html=1;rounded=0;" edge="1" parent="WIyWlLk6GJQsqaUBKTNV-1">
          <mxGeometry width="50" height="50" relative="1" as="geometry">
            <mxPoint x="540" y="220" as="sourcePoint" />
            <mxPoint x="520" y="460" as="targetPoint" />
            <Array as="points">
              <mxPoint x="580" y="220" />
              <mxPoint x="580" y="460" />
            </Array>
          </mxGeometry>
        </mxCell>
        <mxCell id="NYK4G4JIHn3Qf-9X5thW-12" value="&lt;span style=&quot;text-wrap-mode: nowrap;&quot;&gt;1..n&lt;/span&gt;" style="text;whiteSpace=wrap;html=1;" vertex="1" parent="WIyWlLk6GJQsqaUBKTNV-1">
          <mxGeometry x="550" y="200" width="30" height="20" as="geometry" />
        </mxCell>
        <mxCell id="NYK4G4JIHn3Qf-9X5thW-14" value="" style="endArrow=none;html=1;rounded=0;" edge="1" parent="WIyWlLk6GJQsqaUBKTNV-1">
          <mxGeometry width="50" height="50" relative="1" as="geometry">
            <mxPoint x="-116" y="80" as="sourcePoint" />
            <mxPoint x="-160" y="249" as="targetPoint" />
            <Array as="points">
              <mxPoint x="-160" y="80" />
            </Array>
          </mxGeometry>
        </mxCell>
        <mxCell id="NYK4G4JIHn3Qf-9X5thW-15" value="" style="endArrow=diamondThin;endFill=0;endSize=24;html=1;rounded=0;exitX=0.539;exitY=1.026;exitDx=0;exitDy=0;exitPerimeter=0;entryX=0.459;entryY=-0.025;entryDx=0;entryDy=0;entryPerimeter=0;" edge="1" parent="WIyWlLk6GJQsqaUBKTNV-1" source="mOmajmSAC5vP-u8jIPm8-26">
          <mxGeometry width="160" relative="1" as="geometry">
            <mxPoint x="-160.15999999999997" y="962.7719999999999" as="sourcePoint" />
            <mxPoint x="-160.10199999999998" y="1029.9999999999998" as="targetPoint" />
            <Array as="points" />
          </mxGeometry>
        </mxCell>
        <mxCell id="NYK4G4JIHn3Qf-9X5thW-18" value="&lt;span style=&quot;text-wrap-mode: nowrap;&quot;&gt;1&lt;/span&gt;" style="text;whiteSpace=wrap;html=1;" vertex="1" parent="WIyWlLk6GJQsqaUBKTNV-1">
          <mxGeometry x="-146" y="1000" width="30" height="20" as="geometry" />
        </mxCell>
        <mxCell id="NYK4G4JIHn3Qf-9X5thW-19" value="&lt;span style=&quot;text-wrap-mode: nowrap;&quot;&gt;*&lt;/span&gt;" style="text;whiteSpace=wrap;html=1;" vertex="1" parent="WIyWlLk6GJQsqaUBKTNV-1">
          <mxGeometry x="-150" y="960" width="30" height="20" as="geometry" />
        </mxCell>
        <mxCell id="NYK4G4JIHn3Qf-9X5thW-22" value="" style="endArrow=block;endFill=1;html=1;edgeStyle=orthogonalEdgeStyle;align=left;verticalAlign=top;rounded=0;entryX=-0.019;entryY=0.135;entryDx=0;entryDy=0;entryPerimeter=0;" edge="1" parent="WIyWlLk6GJQsqaUBKTNV-1">
          <mxGeometry x="-1" relative="1" as="geometry">
            <mxPoint x="-247" y="470" as="sourcePoint" />
            <mxPoint x="-116.00400000000008" y="42.39999999999998" as="targetPoint" />
            <Array as="points">
              <mxPoint x="-300" y="470" />
              <mxPoint x="-300" y="42" />
            </Array>
          </mxGeometry>
        </mxCell>
      </root>
    </mxGraphModel>
  </diagram>
</mxfile>
